<?xml version="1.0" standalone="no"?>
<!DOCTYPE svg PUBLIC "-//W3C//DTD SVG 20010904//EN"
 "http://www.w3.org/TR/2001/REC-SVG-20010904/DTD/svg10.dtd">
<svg version="1.0" xmlns="http://www.w3.org/2000/svg"
 width="2360.000000pt" height="912.000000pt" viewBox="0 0 2360.000000 912.000000"
 preserveAspectRatio="xMidYMid meet">

<g transform="translate(0.000000,912.000000) scale(0.100000,-0.100000)"
fill="#000000" stroke="none">
<path d="M18157 8780 c-189 -32 -325 -224 -287 -406 21 -99 92 -193 185 -242
45 -25 60 -27 161 -27 105 0 113 2 176 33 76 39 92 63 72 110 -7 18 -20 35
-28 38 -9 3 -49 -10 -90 -30 -83 -40 -142 -46 -204 -20 -139 58 -178 247 -72
352 72 72 181 80 289 20 l60 -33 37 37 c44 43 41 56 -21 100 -86 61 -182 84
-278 68z"/>
<path d="M12514 8766 c-3 -9 -4 -118 -2 -243 3 -225 4 -229 30 -279 50 -95
139 -144 262 -144 148 0 248 72 288 205 8 25 12 117 13 253 l0 212 -30 6 c-17
3 -49 4 -70 2 l-40 -3 -5 -230 c-5 -221 -6 -231 -28 -263 -36 -50 -75 -66
-146 -58 -67 7 -88 21 -119 81 -19 37 -21 57 -22 255 l0 215 -63 3 c-48 2 -64
0 -68 -12z"/>
<path d="M13410 8445 l0 -335 250 0 250 0 0 49 0 48 -92 7 c-50 3 -133 6 -184
6 l-94 0 -2 278 -3 277 -62 3 -63 3 0 -336z"/>
<path d="M14207 8774 c-4 -4 -7 -155 -7 -336 l0 -328 255 0 255 0 0 49 0 48
-92 7 c-50 3 -133 6 -185 6 l-93 0 0 275 0 275 -49 0 c-27 0 -56 2 -63 5 -8 3
-17 2 -21 -1z"/>
<path d="M15502 8765 c-117 -36 -180 -150 -138 -248 7 -18 29 -47 48 -65 31
-29 49 -36 159 -58 158 -32 193 -48 197 -90 5 -52 -32 -86 -99 -92 -75 -6
-161 13 -193 43 -49 45 -61 48 -95 20 -60 -51 -51 -87 32 -128 71 -34 126 -46
213 -47 91 0 160 21 211 65 45 38 77 111 68 155 -15 80 -27 100 -75 131 -34
22 -160 56 -239 64 -78 9 -106 31 -96 78 4 18 15 41 25 51 37 38 207 13 249
-37 19 -23 37 -21 76 8 42 33 49 58 21 83 -76 70 -252 102 -364 67z"/>
<path d="M17220 8770 c-16 -11 -276 -647 -267 -656 3 -3 34 -6 69 -7 l63 -2
35 88 34 87 132 0 c93 0 134 -4 141 -12 6 -7 23 -45 38 -85 24 -62 32 -73 57
-78 27 -6 128 2 128 11 0 2 -9 20 -19 41 -11 21 -63 148 -116 282 -86 217
-128 315 -142 331 -3 3 -36 5 -75 5 -38 0 -73 -2 -78 -5z m100 -202 c36 -83
60 -160 54 -169 -8 -13 -174 -11 -174 1 0 6 13 40 30 77 16 36 35 83 40 104 6
22 15 39 19 39 5 0 19 -24 31 -52z"/>
<path d="M19266 8773 l-59 -4 -132 -135 c-72 -73 -136 -134 -143 -134 -9 0
-13 33 -14 113 -1 61 -1 122 0 135 1 21 -3 22 -74 22 l-74 0 0 -335 0 -336 73
3 72 3 3 143 c1 78 6 142 11 142 5 0 26 -19 47 -42 20 -24 80 -88 132 -142
l94 -99 77 -3 c42 -2 82 0 89 5 9 5 -36 57 -148 168 -88 89 -160 167 -160 175
0 8 68 80 150 160 83 80 150 150 150 156 0 7 -8 11 -17 10 -10 -1 -45 -3 -77
-5z"/>
<path d="M11709 8463 c0 -170 -2 -318 -3 -331 -3 -27 19 -35 90 -30 l49 3 3
133 3 132 118 0 119 0 4 65 3 64 -120 3 -120 3 0 70 0 70 183 3 182 2 0 29 c0
16 3 43 6 60 l7 31 -262 0 -261 0 -1 -307z"/>
<path d="M16138 8730 c-1 -22 -2 -48 -2 -57 -1 -16 12 -19 109 -23 l110 -5 5
-270 5 -270 40 -3 c21 -2 53 -1 70 2 l30 6 -3 257 c-2 165 1 260 8 267 10 10
16 11 138 14 l72 2 0 60 0 60 -290 0 -290 0 -2 -40z"/>
<path d="M20797 8338 c-18 -101 -67 -394 -67 -405 0 -7 20 -14 48 -18 161 -19
271 -53 357 -111 229 -151 345 -417 385 -879 6 -71 15 -377 20 -679 8 -536 9
-554 34 -672 83 -394 283 -681 612 -881 55 -33 185 -93 203 -93 29 0 2 -20
-86 -64 -400 -198 -634 -502 -734 -956 -19 -86 -21 -145 -30 -620 -9 -564 -16
-674 -55 -873 -84 -433 -282 -706 -574 -795 -36 -11 -88 -23 -115 -26 -77 -11
-77 -11 -60 -96 8 -41 25 -137 39 -213 13 -77 27 -141 30 -144 7 -7 239 25
311 43 156 40 272 90 394 172 338 227 575 591 676 1041 53 233 56 275 65 851
9 574 13 632 62 788 60 195 187 363 344 453 137 78 340 131 552 145 l112 7 -2
276 -3 276 -140 12 c-233 20 -363 53 -498 126 -180 98 -286 230 -360 448 -52
151 -58 223 -67 794 -10 664 -24 790 -121 1080 -138 416 -377 718 -694 878
-165 83 -277 116 -489 147 -72 11 -134 20 -137 20 -4 0 -9 -15 -12 -32z"/>
<path d="M2615 7806 c-291 -51 -455 -122 -658 -286 -246 -198 -440 -534 -532
-926 -49 -206 -56 -298 -65 -854 -5 -289 -14 -560 -19 -604 -46 -346 -191
-571 -444 -692 -116 -55 -392 -114 -532 -114 -80 0 -75 20 -75 -286 l0 -274
53 0 c74 0 249 -25 352 -49 340 -81 562 -309 625 -643 24 -122 32 -269 40
-738 6 -320 15 -530 24 -595 78 -559 358 -1039 742 -1272 86 -52 240 -119 341
-147 75 -21 272 -56 317 -56 15 0 39 89 75 284 11 59 25 114 32 122 18 22 4
30 -73 44 -156 27 -255 72 -355 158 -121 105 -209 244 -276 438 -87 252 -117
540 -117 1149 0 503 -26 667 -145 922 -122 260 -308 444 -610 603 -55 29 -102
54 -104 56 -2 2 40 24 94 49 328 152 572 425 683 765 67 202 73 268 82 870 12
713 29 901 105 1120 111 321 299 480 620 524 80 11 90 14 88 32 -4 34 -62 353
-71 386 -11 42 -27 43 -197 14z"/>
<path d="M18710 5760 l0 -1800 368 2 367 3 3 1798 2 1797 -370 0 -370 0 0
-1800z"/>
<path d="M10000 5755 l0 -1795 360 0 360 0 0 120 c0 78 4 120 11 120 6 0 21
-13 34 -28 64 -76 231 -181 353 -222 153 -51 434 -59 598 -16 289 75 526 277
670 571 30 60 66 155 81 210 25 93 27 114 27 310 1 198 -1 216 -26 311 -124
460 -450 763 -886 825 -115 16 -316 7 -415 -20 -134 -35 -272 -107 -383 -197
-23 -19 -44 -34 -48 -34 -3 0 -6 369 -6 820 l0 820 -365 0 -365 0 0 -1795z
m1436 -270 c189 -93 296 -282 280 -495 -17 -232 -165 -401 -391 -446 -328 -64
-604 158 -605 486 0 235 136 424 350 486 29 9 88 12 166 11 119 -3 124 -4 200
-42z"/>
<path d="M4990 7463 c-247 -38 -377 -76 -539 -159 -427 -218 -759 -642 -880
-1121 -57 -227 -74 -583 -37 -803 67 -409 234 -730 527 -1017 261 -255 564
-403 910 -443 135 -16 442 -8 564 14 233 43 501 161 693 306 89 67 225 205
298 303 71 96 155 262 204 407 49 142 47 117 54 648 l3 292 -796 -2 -796 -3
-3 -300 -2 -301 382 1 c211 1 389 0 396 -3 17 -6 15 -74 -3 -147 -20 -78 -87
-210 -130 -257 -232 -250 -628 -326 -928 -177 -187 93 -347 268 -449 494 -130
288 -130 701 0 990 105 234 263 411 446 500 101 49 174 66 311 72 310 13 550
-108 754 -379 l43 -57 26 32 c45 54 282 316 381 419 93 97 94 99 80 126 -8 15
-51 64 -97 109 -244 242 -563 396 -932 448 -96 13 -412 19 -480 8z"/>
<path d="M15173 7410 c-153 -54 -262 -181 -293 -338 -29 -144 14 -278 122
-386 141 -140 315 -171 492 -88 256 121 332 429 162 660 -106 144 -318 211
-483 152z"/>
<path d="M7860 6159 c-328 -58 -606 -271 -763 -584 -44 -88 -94 -245 -107
-333 -14 -101 -12 -335 5 -439 57 -353 303 -678 614 -813 47 -20 116 -45 153
-54 173 -43 441 -39 586 10 99 33 245 119 321 190 84 78 91 73 84 -65 l-6
-111 367 0 366 0 0 1075 0 1075 -367 -2 c-360 -3 -368 -3 -369 -23 0 -11 -1
-53 -2 -94 -2 -55 -5 -72 -15 -68 -7 2 -48 31 -92 62 -96 70 -192 115 -317
150 -78 22 -119 27 -248 30 -85 2 -180 0 -210 -6z m519 -639 c136 -26 267
-132 336 -273 34 -69 39 -87 43 -175 5 -116 -7 -182 -50 -270 -40 -81 -134
-177 -208 -215 -115 -57 -260 -69 -396 -33 -237 63 -384 321 -334 587 24 128
142 285 255 339 97 47 236 62 354 40z"/>
<path d="M14082 6151 c-146 -40 -329 -160 -438 -287 l-49 -58 -7 44 c-3 25 -7
93 -7 153 l-1 107 -367 -2 -368 -3 0 -1070 0 -1070 367 -3 367 -2 3 597 3 598
23 58 c70 174 163 264 304 297 57 13 194 13 260 -1 74 -15 156 -46 202 -76 31
-20 40 -22 47 -11 5 7 9 18 9 24 0 6 63 137 140 292 77 154 140 285 140 291 0
18 -154 87 -245 111 -119 31 -289 36 -383 11z"/>
<path d="M16996 6154 c-230 -42 -437 -151 -617 -326 -228 -222 -344 -492 -342
-798 1 -263 81 -487 243 -684 299 -360 675 -494 1195 -425 285 38 531 158 700
341 54 58 152 196 143 202 -11 9 -516 256 -522 256 -5 0 -45 -32 -90 -71 -44
-39 -107 -84 -140 -101 -152 -77 -378 -78 -529 -2 -131 67 -198 158 -229 312
-9 44 -9 56 3 63 8 5 351 9 783 9 l769 0 -6 148 c-8 181 -27 292 -71 418 -55
152 -107 235 -221 349 -174 174 -389 277 -660 314 -105 15 -313 12 -409 -5z
m409 -495 c103 -38 207 -168 231 -286 l7 -33 -407 0 -406 0 0 30 c0 84 85 213
175 266 98 57 281 68 400 23z"/>
<path d="M14930 5035 l0 -1075 368 2 367 3 3 1073 2 1072 -370 0 -370 0 0
-1075z"/>
<path d="M4252 3393 c-12 -2 -27 -13 -33 -25 -12 -22 -60 -191 -120 -418 -61
-231 -70 -263 -74 -258 -6 5 -117 490 -132 574 -5 31 -4 32 43 40 45 9 49 11
50 39 0 17 -4 33 -10 37 -13 9 -206 10 -258 2 -31 -6 -38 -11 -38 -30 0 -17
10 -29 39 -44 l39 -19 65 -268 c36 -148 80 -332 98 -410 37 -157 36 -155 123
-145 32 4 37 8 47 46 6 22 41 149 78 281 38 132 74 270 82 308 7 37 16 64 21
59 4 -4 43 -136 87 -292 122 -441 107 -398 146 -406 19 -3 46 -2 61 3 23 8 30
18 39 64 7 30 33 135 59 234 25 99 60 239 77 310 47 207 56 233 81 237 25 4
63 51 54 67 -5 7 -50 11 -124 11 -150 0 -192 -7 -192 -31 0 -20 36 -49 62 -49
21 0 38 -30 33 -56 -10 -49 -129 -539 -132 -543 -7 -9 -13 8 -33 99 -11 52
-36 151 -56 220 -19 69 -49 172 -65 230 -19 66 -38 112 -51 123 -20 17 -25 18
-66 10z"/>
<path d="M5505 3390 c-99 -3 -181 -7 -182 -8 -1 -1 3 -15 8 -32 8 -23 20 -33
52 -42 23 -7 45 -17 49 -23 4 -5 8 -171 8 -367 l0 -357 -42 -12 c-24 -6 -48
-13 -55 -15 -14 -4 -13 -46 2 -56 13 -10 641 -8 675 1 24 7 25 10 28 104 3
109 -1 115 -59 100 -32 -9 -34 -12 -39 -64 l-5 -54 -193 -3 -192 -2 2 162 3
163 173 3 172 2 0 50 0 50 -172 2 -173 3 -3 143 -3 142 186 0 185 0 0 -55 c0
-51 2 -55 24 -55 13 0 38 -3 55 -6 l31 -6 0 121 0 121 -177 -2 c-98 -1 -259
-5 -358 -8z"/>
<path d="M11747 3392 c-83 -3 -87 -4 -87 -25 0 -32 20 -55 50 -59 21 -3 25 -7
22 -33 -2 -16 -17 -68 -34 -115 -48 -135 -155 -464 -163 -500 -6 -27 -9 -30
-16 -17 -15 25 -217 601 -219 623 -4 37 0 44 30 44 24 0 33 6 41 27 19 50 12
53 -146 53 l-145 0 0 -25 c0 -23 17 -45 63 -82 8 -6 36 -69 62 -140 26 -70 64
-173 85 -228 100 -271 163 -431 172 -443 12 -13 72 -14 100 0 9 4 22 25 29 45
6 21 38 106 69 188 69 179 169 445 201 534 18 50 28 65 50 73 31 11 65 56 52
68 -10 11 -105 16 -216 12z"/>
<path d="M15145 3391 c-131 -35 -230 -130 -276 -263 -34 -96 -39 -283 -10
-376 42 -140 138 -243 259 -278 85 -25 222 -16 293 19 79 38 143 107 192 206
l42 84 0 141 c-1 121 -4 149 -22 194 -69 172 -200 271 -366 278 -45 2 -95 0
-112 -5z m200 -115 c102 -47 159 -137 175 -275 22 -197 -38 -364 -154 -423
-51 -26 -159 -35 -212 -18 -56 19 -127 90 -160 163 -27 59 -29 69 -29 197 0
110 4 145 20 189 58 156 222 232 360 167z"/>
<path d="M17427 3393 l-48 -4 6 -32 c10 -44 21 -55 58 -59 l32 -3 3 -371 2
-372 -45 -6 c-43 -7 -45 -9 -45 -42 l0 -34 344 0 c319 0 344 1 348 18 7 26 -6
192 -14 192 -5 0 -21 0 -38 0 l-30 0 0 -60 0 -60 -194 0 c-110 0 -197 4 -201
9 -3 5 -2 80 1 165 l7 156 174 0 173 0 0 50 0 50 -175 0 -175 0 0 145 0 145
38 1 c20 0 102 1 182 2 l145 2 6 -51 c9 -68 13 -74 60 -74 l40 0 -3 118 -3
117 -300 1 c-165 0 -322 -1 -348 -3z"/>
<path d="M6583 3383 c-47 -9 -20 -68 37 -83 l40 -11 -2 -366 -3 -366 -39 -11
c-30 -9 -41 -18 -47 -38 -5 -19 -3 -28 8 -32 8 -3 126 -6 262 -6 276 0 319 7
384 61 60 49 82 101 81 189 0 90 -15 123 -88 198 l-51 53 38 32 c56 47 77 85
77 137 0 92 -77 198 -167 230 -38 13 -478 24 -530 13z m494 -116 c37 -20 60
-57 69 -114 7 -46 -9 -84 -51 -123 -25 -24 -34 -25 -159 -28 l-133 -3 -6 38
c-4 21 -4 87 0 147 l6 108 121 -4 c88 -3 130 -9 153 -21z m62 -411 c76 -73 66
-222 -18 -270 -29 -17 -58 -21 -176 -24 l-142 -4 -6 23 c-9 31 -9 155 0 242
l6 68 153 -3 153 -3 30 -29z"/>
<path d="M8558 3383 c-21 -5 -24 -45 -5 -61 6 -6 28 -14 47 -19 l35 -9 0 -369
0 -369 -45 -11 c-41 -10 -45 -14 -47 -44 l-1 -32 256 3 c255 3 258 3 314 30
104 49 185 157 208 277 13 71 13 222 -1 296 -19 106 -89 211 -172 260 -75 44
-153 55 -372 54 -110 -1 -208 -3 -217 -6z m443 -104 c89 -19 139 -63 181 -156
18 -40 23 -72 26 -184 5 -179 -8 -229 -81 -304 -63 -65 -95 -75 -238 -75
l-107 0 -3 38 c-2 20 -2 184 -1 365 l4 327 83 0 c46 0 108 -5 136 -11z"/>
<path d="M9840 3372 c0 -31 29 -61 65 -68 25 -4 37 -13 40 -28 3 -11 4 -178 3
-371 l-3 -350 -44 -11 c-43 -10 -70 -42 -55 -65 3 -5 158 -9 359 -9 312 0 354
2 359 16 8 20 8 85 0 152 -7 55 -15 61 -71 46 -21 -6 -23 -13 -23 -65 l0 -59
-194 0 -193 0 -7 38 c-3 20 -3 94 1 165 l6 127 174 0 173 0 0 50 0 50 -175 0
-175 0 0 150 0 150 180 0 180 0 0 -37 c0 -76 6 -83 66 -83 l54 0 0 110 0 110
-360 0 c-338 0 -360 -1 -360 -18z"/>
<path d="M12420 3368 c0 -13 4 -28 8 -34 10 -16 48 -34 70 -34 11 0 23 -7 26
-16 3 -9 6 -172 6 -364 0 -266 -3 -350 -12 -358 -7 -6 -30 -13 -50 -17 -35 -7
-38 -10 -38 -41 l0 -34 344 0 c189 0 351 3 360 6 13 5 16 25 16 111 l0 105
-37 -6 c-70 -13 -68 -11 -65 -71 l4 -55 -196 0 -196 0 2 163 3 162 169 5 169
5 1 45 1 45 -170 5 -170 5 -3 134 c-2 81 1 138 8 146 7 9 55 12 178 11 l167
-1 5 -55 5 -55 58 -3 57 -3 0 111 0 110 -360 0 -360 0 0 -22z"/>
<path d="M13665 3358 c10 -45 11 -46 50 -54 25 -4 37 -13 40 -28 3 -11 4 -178
3 -371 -3 -341 -4 -350 -23 -353 -62 -9 -65 -11 -65 -47 l0 -35 323 2 322 3 0
92 c0 50 -3 94 -6 98 -4 3 -23 3 -42 0 -35 -7 -36 -9 -39 -54 l-3 -46 -170 0
-170 0 -4 25 c-2 14 0 179 4 368 l7 342 40 6 c42 7 75 42 64 69 -4 13 -33 15
-171 15 l-167 0 7 -32z"/>
<path d="M16173 3383 c-28 -4 -33 -8 -33 -33 0 -23 6 -30 31 -39 18 -6 40 -11
49 -11 10 0 21 -7 24 -16 8 -20 8 -672 0 -701 -4 -16 -19 -27 -46 -35 -41 -12
-64 -39 -54 -64 5 -12 34 -14 168 -12 154 3 163 4 163 23 0 17 -45 57 -78 68
-13 4 -24 200 -13 242 6 24 8 25 99 25 193 1 292 34 350 118 38 55 49 90 49
164 0 110 -55 203 -150 249 -45 23 -57 24 -287 25 -132 1 -255 0 -272 -3z
m509 -121 c45 -28 70 -80 76 -155 4 -49 1 -63 -22 -97 -43 -65 -64 -73 -192
-78 -62 -3 -124 -2 -138 2 l-26 6 0 169 c0 92 3 171 8 175 4 5 63 6 132 4 108
-3 130 -7 162 -26z"/>
<path d="M18638 3384 c-21 -6 -24 -46 -5 -62 6 -6 28 -14 47 -19 l35 -9 3
-366 2 -366 -42 -14 c-38 -11 -43 -16 -43 -43 l0 -30 155 -3 c85 -1 160 0 168
3 23 8 -5 44 -54 67 l-44 22 -2 80 c-1 45 -3 114 -4 154 l-1 72 124 0 c183 0
213 -21 228 -155 17 -158 43 -231 84 -239 119 -22 142 -16 121 33 -7 18 -21
37 -30 44 -20 14 -40 96 -40 165 0 66 -39 146 -85 173 -19 12 -35 24 -35 28 0
4 16 23 36 42 111 107 116 232 13 344 -66 71 -96 78 -374 81 -132 1 -248 0
-257 -2z m514 -122 c42 -26 58 -66 58 -143 0 -61 -32 -110 -85 -127 -25 -8
-80 -12 -154 -10 l-116 3 -3 120 c-2 66 0 135 3 154 l6 33 127 -4 c111 -3 132
-7 164 -26z"/>
</g>
</svg>
